<svg width="108" height="24" viewBox="0 0 108 24" fill="none" xmlns="http://www.w3.org/2000/svg">
<path d="M1.43812 20.6413L0.440216 3.21531L12.6929 2.51366L12.9112 6.32559L5.38939 6.75633L5.56091 9.75142L12.3339 9.36356L12.5522 13.1755L5.7792 13.5634L6.16901 20.3704L1.43812 20.6413Z" fill="url(#paint0_linear_65_766)"/>
<path d="M16.2566 19.4873V2.03271H20.9952V15.6691H28.0521V19.4873H16.2566Z" fill="url(#paint1_linear_65_766)"/>
<path d="M47.0341 14.2727C47.0341 16.2159 46.6563 17.8551 45.9006 19.1903C45.1449 20.5198 44.125 21.5284 42.8409 22.2159C41.5568 22.8977 40.125 23.2386 38.5455 23.2386C36.9546 23.2386 35.5171 22.8948 34.233 22.2073C32.9546 21.5142 31.9375 20.5028 31.1818 19.1733C30.4318 17.838 30.0568 16.2045 30.0568 14.2727C30.0568 12.3295 30.4318 10.6931 31.1818 9.36359C31.9375 8.02836 32.9546 7.01984 34.233 6.33802C35.5171 5.65052 36.9546 5.30677 38.5455 5.30677C40.125 5.30677 41.5568 5.65052 42.8409 6.33802C44.125 7.01984 45.1449 8.02836 45.9006 9.36359C46.6563 10.6931 47.0341 12.3295 47.0341 14.2727ZM42.1591 14.2727C42.1591 13.2272 42.0199 12.3465 41.7415 11.6306C41.4688 10.909 41.0625 10.3636 40.5227 9.99427C39.9886 9.61927 39.3296 9.43177 38.5455 9.43177C37.7614 9.43177 37.0994 9.61927 36.5597 9.99427C36.0256 10.3636 35.6193 10.909 35.3409 11.6306C35.0682 12.3465 34.9318 13.2272 34.9318 14.2727C34.9318 15.3181 35.0682 16.2017 35.3409 16.9233C35.6193 17.6392 36.0256 18.1846 36.5597 18.5596C37.0994 18.9289 37.7614 19.1136 38.5455 19.1136C39.3296 19.1136 39.9886 18.9289 40.5227 18.5596C41.0625 18.1846 41.4688 17.6392 41.7415 16.9233C42.0199 16.2017 42.1591 15.3181 42.1591 14.2727Z" fill="url(#paint2_linear_65_766)"/>
<path d="M52.5568 19L47.4091 1.54541H52.6932L55.0796 12.284H55.2159L58.0455 1.54541H62.2046L65.0341 12.3181H65.1705L67.5568 1.54541H72.8409L67.6932 19H63.1591L60.1932 9.24996H60.0568L57.0909 19H52.5568Z" fill="url(#paint3_linear_65_766)"/>
<path d="M73.6477 9.36359V5.54541H88.8182V9.36359H83.5682V23H78.8977V9.36359H73.6477Z" fill="url(#paint4_linear_65_766)"/>
<path d="M89.4091 1.54541H94.6932L98.1023 8.63632H98.2386L101.648 1.54541H106.932L100.523 13.5113V19H95.8182V13.5113L89.4091 1.54541Z" fill="url(#paint5_linear_65_766)"/>
<defs>
<linearGradient id="paint0_linear_65_766" x1="5.54867" y1="12.392" x2="103.395" y2="12.392" gradientUnits="userSpaceOnUse">
<stop stop-color="#A16EFB"/>
<stop offset="0.5044" stop-color="#E04E10"/>
<stop offset="1" stop-color="#DFD350"/>
</linearGradient>
<linearGradient id="paint1_linear_65_766" x1="5.54867" y1="12.392" x2="103.395" y2="12.392" gradientUnits="userSpaceOnUse">
<stop stop-color="#A16EFB"/>
<stop offset="0.5044" stop-color="#E04E10"/>
<stop offset="1" stop-color="#DFD350"/>
</linearGradient>
<linearGradient id="paint2_linear_65_766" x1="5.54867" y1="12.392" x2="103.395" y2="12.392" gradientUnits="userSpaceOnUse">
<stop stop-color="#A16EFB"/>
<stop offset="0.5044" stop-color="#E04E10"/>
<stop offset="1" stop-color="#DFD350"/>
</linearGradient>
<linearGradient id="paint3_linear_65_766" x1="5.54867" y1="12.392" x2="103.395" y2="12.392" gradientUnits="userSpaceOnUse">
<stop stop-color="#A16EFB"/>
<stop offset="0.5044" stop-color="#E04E10"/>
<stop offset="1" stop-color="#DFD350"/>
</linearGradient>
<linearGradient id="paint4_linear_65_766" x1="5.54867" y1="12.392" x2="103.395" y2="12.392" gradientUnits="userSpaceOnUse">
<stop stop-color="#A16EFB"/>
<stop offset="0.5044" stop-color="#E04E10"/>
<stop offset="1" stop-color="#DFD350"/>
</linearGradient>
<linearGradient id="paint5_linear_65_766" x1="5.54867" y1="12.392" x2="103.395" y2="12.392" gradientUnits="userSpaceOnUse">
<stop stop-color="#A16EFB"/>
<stop offset="0.5044" stop-color="#E04E10"/>
<stop offset="1" stop-color="#DFD350"/>
</linearGradient>
</defs>
</svg>
